<svg width="18" height="18" viewBox="0 0 34 34" fill="none" xmlns="http://www.w3.org/2000/svg">
<path d="M30.1141 15.5295C30.7856 16.4079 30.7856 17.5936 30.1141 18.4705C27.999 21.2316 22.9245 26.9167 17 26.9167C11.0755 26.9167 6.00097 21.2316 3.88589 18.4705C3.55918 18.05 3.38184 17.5326 3.38184 17C3.38184 16.4675 3.55918 15.9501 3.88589 15.5295C6.00097 12.7685 11.0755 7.08337 17 7.08337C22.9245 7.08337 27.999 12.7685 30.1141 15.5295V15.5295Z" stroke="black" stroke-width="2" stroke-linecap="round" stroke-linejoin="round"/>
<path d="M17 21.25C19.3472 21.25 21.25 19.3472 21.25 17C21.25 14.6528 19.3472 12.75 17 12.75C14.6528 12.75 12.75 14.6528 12.75 17C12.75 19.3472 14.6528 21.25 17 21.25Z" stroke="black" stroke-width="2" stroke-linecap="round" stroke-linejoin="round"/>
</svg>
