<svg width="32" height="32" viewBox="0 0 32 32" fill="none" xmlns="http://www.w3.org/2000/svg">
<path d="M7 15H27C27.2652 15 27.5196 15.1054 27.7071 15.2929C27.8946 15.4804 28 15.7348 28 16C28 16.2652 27.8946 16.5196 27.7071 16.7071C27.5196 16.8946 27.2652 17 27 17H7C6.73478 17 6.48043 16.8946 6.29289 16.7071C6.10536 16.5196 6 16.2652 6 16C6 15.7348 6.10536 15.4804 6.29289 15.2929C6.48043 15.1054 6.73478 15 7 15Z" fill="black"/>
<path d="M7.41402 15.9999L15.708 24.2919C15.8958 24.4797 16.0013 24.7344 16.0013 24.9999C16.0013 25.2655 15.8958 25.5201 15.708 25.7079C15.5202 25.8957 15.2656 26.0012 15 26.0012C14.7345 26.0012 14.4798 25.8957 14.292 25.7079L5.29202 16.7079C5.19889 16.615 5.12501 16.5047 5.07459 16.3832C5.02418 16.2617 4.99823 16.1315 4.99823 15.9999C4.99823 15.8684 5.02418 15.7381 5.07459 15.6167C5.12501 15.4952 5.19889 15.3848 5.29202 15.2919L14.292 6.29192C14.4798 6.10415 14.7345 5.99866 15 5.99866C15.2656 5.99866 15.5202 6.10415 15.708 6.29192C15.8958 6.47969 16.0013 6.73437 16.0013 6.99992C16.0013 7.26547 15.8958 7.52015 15.708 7.70792L7.41402 15.9999Z" fill="black"/>
</svg>
